<svg xmlns="http://www.w3.org/2000/svg" version="1.1" xmlns:xlink="http://www.w3.org/1999/xlink" xmlns:svgjs="http://svgjs.dev/svgjs" width="2000" height="1753" viewBox="0 0 2000 1753"><g transform="matrix(1,0,0,1,-0.3308695652174265,-2.756194090909162)"><svg viewBox="0 0 276 242" data-background-color="#000000" preserveAspectRatio="xMidYMid meet" height="1753" width="2000" xmlns="http://www.w3.org/2000/svg" xmlns:xlink="http://www.w3.org/1999/xlink"><g id="tight-bounds" transform="matrix(1,0,0,1,0.045659999999998035,0.3808300000000031)"><svg viewBox="0 0 275.90868 241.23766" height="241.23766" width="275.90868"><rect width="275.90868" height="241.23868" fill="url(#840fe368-b08f-4910-9f74-f1f1e0cb0d2a)" mask="url(#78213402-f21a-4fbf-9215-89a876d4696e)" data-fill-palette-color="tertiary"></rect><g><svg></svg></g><g><svg viewBox="0 0 275.90868 241.23766" height="241.23766" width="275.90868"><g transform="matrix(1,0,0,1,-59.80566,-5.96234)"><path d="M59.806 5.962h275.908v235.276l-62.969 0 0-15.605h47.364v-204.066h-244.698l0 187.773h-15.605z" fill="url(#840fe368-b08f-4910-9f74-f1f1e0cb0d2a)" fill-rule="nonzero" stroke="none" stroke-width="1" stroke-linecap="butt" stroke-linejoin="miter" stroke-miterlimit="10" stroke-dasharray="" stroke-dashoffset="0" font-family="none" font-weight="none" font-size="none" text-anchor="none" style="mix-blend-mode: normal" data-fill-palette-color="tertiary"></path><g></g></g><g transform="matrix(1,0,0,1,21.57645764705883,34.09883000000001)"><svg viewBox="0 0 232.75576470588234 173.04" height="173.04" width="232.75576470588234"><g><svg viewBox="0 0 232.75576470588234 173.04" height="173.04" width="232.75576470588234"><g><svg viewBox="0 0 232.75576470588234 173.04" height="173.04" width="232.75576470588234"><g><svg viewBox="0 0 232.75576470588234 173.04" height="173.04" width="232.75576470588234"><g id="textblocktransform"><svg viewBox="0 0 232.75576470588234 173.04" height="173.04" width="232.75576470588234" id="textblock"><g><svg viewBox="0 0 232.75576470588234 173.04" height="173.04" width="232.75576470588234"><g transform="matrix(1,0,0,1,0,0)"><svg width="232.75576470588234" viewBox="2.42 -36.74 50.239999999999995 37.35" height="173.04" data-palette-color="url(#fc02bea8-8328-434f-b530-d62310f8885f)"></svg></g></svg></g></svg></g></svg></g></svg></g></svg></g></svg></g></svg></g><defs></defs><mask id="3175ccf4-79b2-48a2-b5ce-e08d1a24f0d1"><g id="SvgjsG2000"><svg viewBox="0 0 275.90868 241.23766" height="241.23766" width="275.90868"><g><svg></svg></g><g><svg viewBox="0 0 275.90868 241.23766" height="241.23766" width="275.90868"><g transform="matrix(1,0,0,1,-59.80566,-5.96234)"><path d="M59.806 5.962h275.908v235.276l-62.969 0 0-15.605h47.364v-204.066h-244.698l0 187.773h-15.605z" fill="black" fill-rule="nonzero" stroke="none" stroke-width="1" stroke-linecap="butt" stroke-linejoin="miter" stroke-miterlimit="10" stroke-dasharray="" stroke-dashoffset="0" font-family="none" font-weight="none" font-size="none" text-anchor="none" style="mix-blend-mode: normal"></path><g><path d="M101.391 246.571l-11.85-18.091-2.517 3.985v14.106h-2.937v-36.759h2.937v17.514l11.746-17.514h3.408l-10.75 15.889 13.477 20.87zM124.674 246.571v-17.986c0-2.132-0.619-3.681-1.857-4.646-1.245-0.958-2.846-1.437-4.803-1.437v0c-1.189 0-2.395 0.164-3.618 0.493-1.224 0.336-2.307 0.766-3.251 1.29v0 22.286h-2.937v-36.706h2.937v11.85c0.874-0.594 1.923-1.059 3.146-1.394 1.224-0.329 2.5-0.493 3.828-0.493v0c1.818 0 3.478 0.332 4.982 0.996v0c1.398 0.629 2.493 1.573 3.282 2.832 0.783 1.258 1.175 2.849 1.175 4.771v0 18.144zM152.833 246.571c-3.775 0.385-6.502 0.577-8.181 0.577v0c-3.671 0-6.59-0.682-8.757-2.045-2.167-1.363-3.251-3.828-3.251-7.394v0-4.352c0-3.461 1.206-5.786 3.618-6.975v0c1.154-0.594 2.622-0.891 4.405-0.891v0c1.643 0 3.304 0.269 4.982 0.807 1.678 0.545 3.094 1.255 4.247 2.129v0c0-1.923-0.559-3.454-1.678-4.593-1.119-1.133-3.269-1.699-6.45-1.699v0l0.158-2.255c3.356 0 5.831 0.531 7.425 1.594 1.587 1.07 2.566 2.339 2.936 3.807 0.364 1.468 0.545 3.356 0.545 5.663v0zM149.896 230.682c-1.433-0.664-2.961-1.241-4.583-1.73-1.629-0.489-3.125-0.734-4.489-0.734v0c-3.531 0-5.296 1.765-5.296 5.296v0 4.562c0 2.272 0.787 3.922 2.36 4.95 1.573 1.035 3.81 1.552 6.712 1.552v0c1.503 0 3.269-0.14 5.296-0.419v0zM158.81 228.427c0-3.671 1.486-6.188 4.458-7.551v0c1.433-0.664 3.146-0.996 5.138-0.996v0c1.293 0 2.545 0.157 3.755 0.472 1.203 0.315 2.223 0.769 3.062 1.363v0-11.85h2.937v36.706l-2.884 0.262c-2.272 0.245-4.055 0.367-5.349 0.367v0c-1.293 0-2.507-0.122-3.639-0.367-1.14-0.245-2.269-0.647-3.388-1.206v0c-1.258-0.629-2.255-1.556-2.988-2.779-0.734-1.224-1.101-2.727-1.102-4.51v0zM175.223 224.285c-0.944-0.524-2.028-0.954-3.251-1.29-1.224-0.329-2.43-0.493-3.618-0.493v0c-1.958 0-3.555 0.479-4.793 1.437-1.245 0.965-1.867 2.514-1.867 4.646v0 9.806c0 4.09 2.814 6.135 8.443 6.135v0c1.328 0 3.024-0.157 5.086-0.472v0zM185.763 212.854c-0.454 0-0.863-0.185-1.227-0.556-0.371-0.364-0.556-0.773-0.556-1.227v0c0-0.454 0.175-0.856 0.525-1.206 0.35-0.35 0.769-0.524 1.258-0.525v0c0.489 0 0.902 0.168 1.238 0.504 0.329 0.329 0.493 0.738 0.493 1.227v0c0 0.489-0.175 0.909-0.525 1.258-0.35 0.35-0.752 0.524-1.206 0.525zM184.242 246.571v-26.271h2.937v26.271zM194.887 246.571v-26.271h2.937l-0.158 1.835c1.643-1.538 3.793-2.307 6.45-2.307v0c0.944 0 2.237 0.157 3.881 0.472v0l-0.787 2.674c-1.119-0.35-2.29-0.524-3.513-0.524v0c-1.608 0-2.989 0.297-4.143 0.891-1.154 0.594-1.73 1.486-1.73 2.674v0 20.556zM225.93 246.571c-3.775 0.385-6.502 0.577-8.18 0.577v0c-3.671 0-6.59-0.682-8.757-2.045-2.167-1.363-3.251-3.828-3.251-7.394v0-4.352c0-3.461 1.206-5.786 3.618-6.975v0c1.154-0.594 2.622-0.891 4.405-0.891v0c1.643 0 3.304 0.269 4.981 0.807 1.678 0.545 3.094 1.255 4.248 2.129v0c0-1.923-0.559-3.454-1.678-4.593-1.119-1.133-3.269-1.699-6.45-1.699v0l0.157-2.255c3.356 0 5.831 0.531 7.425 1.594 1.587 1.07 2.566 2.339 2.937 3.807 0.364 1.468 0.545 3.356 0.545 5.663v0zM222.994 230.682c-1.433-0.664-2.961-1.241-4.583-1.73-1.629-0.489-3.125-0.734-4.489-0.734v0c-3.531 0-5.296 1.765-5.296 5.296v0 4.562c0 2.272 0.787 3.922 2.36 4.95 1.573 1.035 3.81 1.552 6.712 1.552v0c1.503 0 3.269-0.14 5.296-0.419v0z" fill="black" fill-rule="nonzero" stroke="none" stroke-width="1" stroke-linecap="butt" stroke-linejoin="miter" stroke-miterlimit="10" stroke-dasharray="" stroke-dashoffset="0" font-family="none" font-weight="none" font-size="none" text-anchor="none" style="mix-blend-mode: normal" id="SvgjsPath1999"></path></g></g><g transform="matrix(1,0,0,1,21.57645764705883,34.09883000000001)"><svg viewBox="0 0 232.75576470588234 173.04" height="173.04" width="232.75576470588234"><g><svg viewBox="0 0 232.75576470588234 173.04" height="173.04" width="232.75576470588234"><g><svg viewBox="0 0 232.75576470588234 173.04" height="173.04" width="232.75576470588234"><g><svg viewBox="0 0 232.75576470588234 173.04" height="173.04" width="232.75576470588234"><g id="SvgjsG1998"><svg viewBox="0 0 232.75576470588234 173.04" height="173.04" width="232.75576470588234" id="SvgjsSvg1997"><g><svg viewBox="0 0 232.75576470588234 173.04" height="173.04" width="232.75576470588234"><g transform="matrix(1,0,0,1,0,0)"><svg width="232.75576470588234" viewBox="2.42 -36.74 50.239999999999995 37.35" height="173.04" data-palette-color="url(#fc02bea8-8328-434f-b530-d62310f8885f)"><path d="M13.89 0.61L13.89 0.61Q10.86 0.61 8.24-0.93 5.62-2.47 4.02-5.38 2.42-8.3 2.42-12.45L2.42-12.45Q2.42-16.63 4.02-19.57 5.62-22.51 8.24-24.06 10.86-25.61 13.89-25.61L13.89-25.61Q16.97-25.61 19.6-24.06 22.24-22.51 23.84-19.57 25.44-16.63 25.44-12.45L25.44-12.45Q25.44-8.3 23.84-5.38 22.24-2.47 19.6-0.93 16.97 0.61 13.89 0.61ZM13.89-2.66L13.89-2.66Q17.24-2.66 19.31-5.36 21.39-8.06 21.39-12.45L21.39-12.45Q21.39-16.87 19.31-19.59 17.24-22.31 13.89-22.31L13.89-22.31Q11.72-22.31 10.03-21.07 8.35-19.82 7.41-17.61 6.47-15.41 6.47-12.45L6.47-12.45Q6.47-8.06 8.54-5.36 10.62-2.66 13.89-2.66ZM36.06 0L32.15 0 32.15-36.74 36.06-36.74 36.06-11.57 36.2-11.57 47.09-24.98 51.51-24.98 43.16-14.94 52.66 0 48.34 0 40.92-12.21 36.06-6.64 36.06 0Z" opacity="1" transform="matrix(1,0,0,1,0,0)" fill="white" class="wordmark-text-0" id="SvgjsPath1996"></path></svg></g></svg></g></svg></g></svg></g></svg></g></svg></g></svg></g></svg></g><defs><mask></mask></defs></svg><rect width="275.90868" height="241.23766" fill="black" stroke="none" visibility="hidden"></rect></g></mask><linearGradient x1="0" x2="1" y1="0.5" y2="0.5" id="fc02bea8-8328-434f-b530-d62310f8885f"><stop stop-color="#ffa62e" offset="0"></stop><stop stop-color="#f71b3d" offset="1"></stop></linearGradient><rect width="275.90868" height="241.238" fill="url(#fc02bea8-8328-434f-b530-d62310f8885f)" mask="url(#3175ccf4-79b2-48a2-b5ce-e08d1a24f0d1)" data-fill-palette-color="primary"></rect><mask id="29d10a5f-a39a-4cb6-a691-2a601afd5fed"><g id="SvgjsG2009"><svg viewBox="0 0 275.90868 241.23766" height="241.23766" width="275.90868"><g><svg></svg></g><g><svg viewBox="0 0 275.90868 241.23766" height="241.23766" width="275.90868"><g transform="matrix(1,0,0,1,-59.80566,-5.96234)"><path d="M59.806 5.962h275.908v235.276l-62.969 0 0-15.605h47.364v-204.066h-244.698l0 187.773h-15.605z" fill="black" fill-rule="nonzero" stroke="none" stroke-width="1" stroke-linecap="butt" stroke-linejoin="miter" stroke-miterlimit="10" stroke-dasharray="" stroke-dashoffset="0" font-family="none" font-weight="none" font-size="none" text-anchor="none" style="mix-blend-mode: normal"></path><g><path d="M101.391 246.571l-11.85-18.091-2.517 3.985v14.106h-2.937v-36.759h2.937v17.514l11.746-17.514h3.408l-10.75 15.889 13.477 20.87zM124.674 246.571v-17.986c0-2.132-0.619-3.681-1.857-4.646-1.245-0.958-2.846-1.437-4.803-1.437v0c-1.189 0-2.395 0.164-3.618 0.493-1.224 0.336-2.307 0.766-3.251 1.29v0 22.286h-2.937v-36.706h2.937v11.85c0.874-0.594 1.923-1.059 3.146-1.394 1.224-0.329 2.5-0.493 3.828-0.493v0c1.818 0 3.478 0.332 4.982 0.996v0c1.398 0.629 2.493 1.573 3.282 2.832 0.783 1.258 1.175 2.849 1.175 4.771v0 18.144zM152.833 246.571c-3.775 0.385-6.502 0.577-8.181 0.577v0c-3.671 0-6.59-0.682-8.757-2.045-2.167-1.363-3.251-3.828-3.251-7.394v0-4.352c0-3.461 1.206-5.786 3.618-6.975v0c1.154-0.594 2.622-0.891 4.405-0.891v0c1.643 0 3.304 0.269 4.982 0.807 1.678 0.545 3.094 1.255 4.247 2.129v0c0-1.923-0.559-3.454-1.678-4.593-1.119-1.133-3.269-1.699-6.45-1.699v0l0.158-2.255c3.356 0 5.831 0.531 7.425 1.594 1.587 1.07 2.566 2.339 2.936 3.807 0.364 1.468 0.545 3.356 0.545 5.663v0zM149.896 230.682c-1.433-0.664-2.961-1.241-4.583-1.73-1.629-0.489-3.125-0.734-4.489-0.734v0c-3.531 0-5.296 1.765-5.296 5.296v0 4.562c0 2.272 0.787 3.922 2.36 4.95 1.573 1.035 3.81 1.552 6.712 1.552v0c1.503 0 3.269-0.14 5.296-0.419v0zM158.81 228.427c0-3.671 1.486-6.188 4.458-7.551v0c1.433-0.664 3.146-0.996 5.138-0.996v0c1.293 0 2.545 0.157 3.755 0.472 1.203 0.315 2.223 0.769 3.062 1.363v0-11.85h2.937v36.706l-2.884 0.262c-2.272 0.245-4.055 0.367-5.349 0.367v0c-1.293 0-2.507-0.122-3.639-0.367-1.14-0.245-2.269-0.647-3.388-1.206v0c-1.258-0.629-2.255-1.556-2.988-2.779-0.734-1.224-1.101-2.727-1.102-4.51v0zM175.223 224.285c-0.944-0.524-2.028-0.954-3.251-1.29-1.224-0.329-2.43-0.493-3.618-0.493v0c-1.958 0-3.555 0.479-4.793 1.437-1.245 0.965-1.867 2.514-1.867 4.646v0 9.806c0 4.09 2.814 6.135 8.443 6.135v0c1.328 0 3.024-0.157 5.086-0.472v0zM185.763 212.854c-0.454 0-0.863-0.185-1.227-0.556-0.371-0.364-0.556-0.773-0.556-1.227v0c0-0.454 0.175-0.856 0.525-1.206 0.35-0.35 0.769-0.524 1.258-0.525v0c0.489 0 0.902 0.168 1.238 0.504 0.329 0.329 0.493 0.738 0.493 1.227v0c0 0.489-0.175 0.909-0.525 1.258-0.35 0.35-0.752 0.524-1.206 0.525zM184.242 246.571v-26.271h2.937v26.271zM194.887 246.571v-26.271h2.937l-0.158 1.835c1.643-1.538 3.793-2.307 6.45-2.307v0c0.944 0 2.237 0.157 3.881 0.472v0l-0.787 2.674c-1.119-0.35-2.29-0.524-3.513-0.524v0c-1.608 0-2.989 0.297-4.143 0.891-1.154 0.594-1.73 1.486-1.73 2.674v0 20.556zM225.93 246.571c-3.775 0.385-6.502 0.577-8.18 0.577v0c-3.671 0-6.59-0.682-8.757-2.045-2.167-1.363-3.251-3.828-3.251-7.394v0-4.352c0-3.461 1.206-5.786 3.618-6.975v0c1.154-0.594 2.622-0.891 4.405-0.891v0c1.643 0 3.304 0.269 4.981 0.807 1.678 0.545 3.094 1.255 4.248 2.129v0c0-1.923-0.559-3.454-1.678-4.593-1.119-1.133-3.269-1.699-6.45-1.699v0l0.157-2.255c3.356 0 5.831 0.531 7.425 1.594 1.587 1.07 2.566 2.339 2.937 3.807 0.364 1.468 0.545 3.356 0.545 5.663v0zM222.994 230.682c-1.433-0.664-2.961-1.241-4.583-1.73-1.629-0.489-3.125-0.734-4.489-0.734v0c-3.531 0-5.296 1.765-5.296 5.296v0 4.562c0 2.272 0.787 3.922 2.36 4.95 1.573 1.035 3.81 1.552 6.712 1.552v0c1.503 0 3.269-0.14 5.296-0.419v0z" fill="white" fill-rule="nonzero" stroke="none" stroke-width="1" stroke-linecap="butt" stroke-linejoin="miter" stroke-miterlimit="10" stroke-dasharray="" stroke-dashoffset="0" font-family="none" font-weight="none" font-size="none" text-anchor="none" style="mix-blend-mode: normal" id="SvgjsPath2008"></path></g></g><g transform="matrix(1,0,0,1,21.57645764705883,34.09883000000001)"><svg viewBox="0 0 232.75576470588234 173.04" height="173.04" width="232.75576470588234"><g><svg viewBox="0 0 232.75576470588234 173.04" height="173.04" width="232.75576470588234"><g><svg viewBox="0 0 232.75576470588234 173.04" height="173.04" width="232.75576470588234"><g><svg viewBox="0 0 232.75576470588234 173.04" height="173.04" width="232.75576470588234"><g id="SvgjsG2007"><svg viewBox="0 0 232.75576470588234 173.04" height="173.04" width="232.75576470588234" id="SvgjsSvg2006"><g><svg viewBox="0 0 232.75576470588234 173.04" height="173.04" width="232.75576470588234"><g transform="matrix(1,0,0,1,0,0)"><svg width="232.75576470588234" viewBox="2.42 -36.74 50.239999999999995 37.35" height="173.04" data-palette-color="url(#fc02bea8-8328-434f-b530-d62310f8885f)"></svg></g></svg></g></svg></g></svg></g></svg></g></svg></g></svg></g></svg></g><defs><mask></mask></defs><mask><g id="SvgjsG2005"><svg viewBox="0 0 275.90868 241.23766" height="241.23766" width="275.90868"><g><svg></svg></g><g><svg viewBox="0 0 275.90868 241.23766" height="241.23766" width="275.90868"><g transform="matrix(1,0,0,1,-59.80566,-5.96234)"><path d="M59.806 5.962h275.908v235.276l-62.969 0 0-15.605h47.364v-204.066h-244.698l0 187.773h-15.605z" fill="black" fill-rule="nonzero" stroke="none" stroke-width="1" stroke-linecap="butt" stroke-linejoin="miter" stroke-miterlimit="10" stroke-dasharray="" stroke-dashoffset="0" font-family="none" font-weight="none" font-size="none" text-anchor="none" style="mix-blend-mode: normal"></path><g><path d="M101.391 246.571l-11.85-18.091-2.517 3.985v14.106h-2.937v-36.759h2.937v17.514l11.746-17.514h3.408l-10.75 15.889 13.477 20.87zM124.674 246.571v-17.986c0-2.132-0.619-3.681-1.857-4.646-1.245-0.958-2.846-1.437-4.803-1.437v0c-1.189 0-2.395 0.164-3.618 0.493-1.224 0.336-2.307 0.766-3.251 1.29v0 22.286h-2.937v-36.706h2.937v11.85c0.874-0.594 1.923-1.059 3.146-1.394 1.224-0.329 2.5-0.493 3.828-0.493v0c1.818 0 3.478 0.332 4.982 0.996v0c1.398 0.629 2.493 1.573 3.282 2.832 0.783 1.258 1.175 2.849 1.175 4.771v0 18.144zM152.833 246.571c-3.775 0.385-6.502 0.577-8.181 0.577v0c-3.671 0-6.59-0.682-8.757-2.045-2.167-1.363-3.251-3.828-3.251-7.394v0-4.352c0-3.461 1.206-5.786 3.618-6.975v0c1.154-0.594 2.622-0.891 4.405-0.891v0c1.643 0 3.304 0.269 4.982 0.807 1.678 0.545 3.094 1.255 4.247 2.129v0c0-1.923-0.559-3.454-1.678-4.593-1.119-1.133-3.269-1.699-6.45-1.699v0l0.158-2.255c3.356 0 5.831 0.531 7.425 1.594 1.587 1.07 2.566 2.339 2.936 3.807 0.364 1.468 0.545 3.356 0.545 5.663v0zM149.896 230.682c-1.433-0.664-2.961-1.241-4.583-1.73-1.629-0.489-3.125-0.734-4.489-0.734v0c-3.531 0-5.296 1.765-5.296 5.296v0 4.562c0 2.272 0.787 3.922 2.36 4.95 1.573 1.035 3.81 1.552 6.712 1.552v0c1.503 0 3.269-0.14 5.296-0.419v0zM158.81 228.427c0-3.671 1.486-6.188 4.458-7.551v0c1.433-0.664 3.146-0.996 5.138-0.996v0c1.293 0 2.545 0.157 3.755 0.472 1.203 0.315 2.223 0.769 3.062 1.363v0-11.85h2.937v36.706l-2.884 0.262c-2.272 0.245-4.055 0.367-5.349 0.367v0c-1.293 0-2.507-0.122-3.639-0.367-1.14-0.245-2.269-0.647-3.388-1.206v0c-1.258-0.629-2.255-1.556-2.988-2.779-0.734-1.224-1.101-2.727-1.102-4.51v0zM175.223 224.285c-0.944-0.524-2.028-0.954-3.251-1.29-1.224-0.329-2.43-0.493-3.618-0.493v0c-1.958 0-3.555 0.479-4.793 1.437-1.245 0.965-1.867 2.514-1.867 4.646v0 9.806c0 4.09 2.814 6.135 8.443 6.135v0c1.328 0 3.024-0.157 5.086-0.472v0zM185.763 212.854c-0.454 0-0.863-0.185-1.227-0.556-0.371-0.364-0.556-0.773-0.556-1.227v0c0-0.454 0.175-0.856 0.525-1.206 0.35-0.35 0.769-0.524 1.258-0.525v0c0.489 0 0.902 0.168 1.238 0.504 0.329 0.329 0.493 0.738 0.493 1.227v0c0 0.489-0.175 0.909-0.525 1.258-0.35 0.35-0.752 0.524-1.206 0.525zM184.242 246.571v-26.271h2.937v26.271zM194.887 246.571v-26.271h2.937l-0.158 1.835c1.643-1.538 3.793-2.307 6.45-2.307v0c0.944 0 2.237 0.157 3.881 0.472v0l-0.787 2.674c-1.119-0.35-2.29-0.524-3.513-0.524v0c-1.608 0-2.989 0.297-4.143 0.891-1.154 0.594-1.73 1.486-1.73 2.674v0 20.556zM225.93 246.571c-3.775 0.385-6.502 0.577-8.18 0.577v0c-3.671 0-6.59-0.682-8.757-2.045-2.167-1.363-3.251-3.828-3.251-7.394v0-4.352c0-3.461 1.206-5.786 3.618-6.975v0c1.154-0.594 2.622-0.891 4.405-0.891v0c1.643 0 3.304 0.269 4.981 0.807 1.678 0.545 3.094 1.255 4.248 2.129v0c0-1.923-0.559-3.454-1.678-4.593-1.119-1.133-3.269-1.699-6.45-1.699v0l0.157-2.255c3.356 0 5.831 0.531 7.425 1.594 1.587 1.07 2.566 2.339 2.937 3.807 0.364 1.468 0.545 3.356 0.545 5.663v0zM222.994 230.682c-1.433-0.664-2.961-1.241-4.583-1.73-1.629-0.489-3.125-0.734-4.489-0.734v0c-3.531 0-5.296 1.765-5.296 5.296v0 4.562c0 2.272 0.787 3.922 2.36 4.95 1.573 1.035 3.81 1.552 6.712 1.552v0c1.503 0 3.269-0.14 5.296-0.419v0z" fill="black" fill-rule="nonzero" stroke="none" stroke-width="1" stroke-linecap="butt" stroke-linejoin="miter" stroke-miterlimit="10" stroke-dasharray="" stroke-dashoffset="0" font-family="none" font-weight="none" font-size="none" text-anchor="none" style="mix-blend-mode: normal" id="SvgjsPath2004"></path></g></g><g transform="matrix(1,0,0,1,21.57645764705883,34.09883000000001)"><svg viewBox="0 0 232.75576470588234 173.04" height="173.04" width="232.75576470588234"><g><svg viewBox="0 0 232.75576470588234 173.04" height="173.04" width="232.75576470588234"><g><svg viewBox="0 0 232.75576470588234 173.04" height="173.04" width="232.75576470588234"><g><svg viewBox="0 0 232.75576470588234 173.04" height="173.04" width="232.75576470588234"><g id="SvgjsG2003"><svg viewBox="0 0 232.75576470588234 173.04" height="173.04" width="232.75576470588234" id="SvgjsSvg2002"><g><svg viewBox="0 0 232.75576470588234 173.04" height="173.04" width="232.75576470588234"><g transform="matrix(1,0,0,1,0,0)"><svg width="232.75576470588234" viewBox="2.42 -36.74 50.239999999999995 37.35" height="173.04" data-palette-color="url(#fc02bea8-8328-434f-b530-d62310f8885f)"><path d="M13.89 0.61L13.89 0.61Q10.86 0.61 8.24-0.93 5.62-2.47 4.02-5.38 2.42-8.3 2.42-12.45L2.42-12.45Q2.42-16.63 4.02-19.57 5.62-22.51 8.24-24.06 10.86-25.61 13.89-25.61L13.89-25.61Q16.97-25.61 19.6-24.06 22.24-22.51 23.84-19.57 25.44-16.63 25.44-12.45L25.44-12.45Q25.44-8.3 23.84-5.38 22.24-2.47 19.6-0.93 16.97 0.61 13.89 0.61ZM13.89-2.66L13.89-2.66Q17.24-2.66 19.31-5.36 21.39-8.06 21.39-12.45L21.39-12.45Q21.39-16.87 19.31-19.59 17.24-22.31 13.89-22.31L13.89-22.31Q11.72-22.31 10.03-21.07 8.35-19.82 7.41-17.61 6.47-15.41 6.47-12.45L6.47-12.45Q6.47-8.06 8.54-5.36 10.62-2.66 13.89-2.66ZM36.06 0L32.15 0 32.15-36.74 36.06-36.74 36.06-11.57 36.2-11.57 47.09-24.98 51.51-24.98 43.16-14.94 52.66 0 48.34 0 40.92-12.21 36.06-6.64 36.06 0Z" opacity="1" transform="matrix(1,0,0,1,0,0)" fill="black" class="wordmark-text-0" id="SvgjsPath2001"></path></svg></g></svg></g></svg></g></svg></g></svg></g></svg></g></svg></g></svg></g><defs><mask></mask></defs></svg><rect width="275.90868" height="241.23766" fill="black" stroke="none" visibility="hidden"></rect></g></mask></svg><rect width="275.90868" height="241.23766" fill="black" stroke="none" visibility="hidden"></rect></g></mask><linearGradient x1="0" x2="1" y1="0.5" y2="0.5" id="4bfd35de-ad93-425d-961a-a33179bb7944"><stop stop-color="#ffa62e" offset="0"></stop><stop stop-color="#f71b3d" offset="1"></stop></linearGradient><rect width="275.90868" height="241.23834" fill="url(#4bfd35de-ad93-425d-961a-a33179bb7944)" mask="url(#29d10a5f-a39a-4cb6-a691-2a601afd5fed)" data-fill-palette-color="secondary"></rect><mask id="78213402-f21a-4fbf-9215-89a876d4696e"><g id="SvgjsG2044"><svg viewBox="0 0 275.90868 241.23766" height="241.23766" width="275.90868"><g><svg></svg></g><g><svg viewBox="0 0 275.90868 241.23766" height="241.23766" width="275.90868"><g transform="matrix(1,0,0,1,-59.80566,-5.96234)"><path d="M59.806 5.962h275.908v235.276l-62.969 0 0-15.605h47.364v-204.066h-244.698l0 187.773h-15.605z" fill="white" fill-rule="nonzero" stroke="none" stroke-width="1" stroke-linecap="butt" stroke-linejoin="miter" stroke-miterlimit="10" stroke-dasharray="" stroke-dashoffset="0" font-family="none" font-weight="none" font-size="none" text-anchor="none" style="mix-blend-mode: normal"></path><g></g></g><g transform="matrix(1,0,0,1,21.57645764705883,34.09883000000001)"><svg viewBox="0 0 232.75576470588234 173.04" height="173.04" width="232.75576470588234"><g><svg viewBox="0 0 232.75576470588234 173.04" height="173.04" width="232.75576470588234"><g><svg viewBox="0 0 232.75576470588234 173.04" height="173.04" width="232.75576470588234"><g><svg viewBox="0 0 232.75576470588234 173.04" height="173.04" width="232.75576470588234"><g id="SvgjsG2043"><svg viewBox="0 0 232.75576470588234 173.04" height="173.04" width="232.75576470588234" id="SvgjsSvg2042"><g><svg viewBox="0 0 232.75576470588234 173.04" height="173.04" width="232.75576470588234"><g transform="matrix(1,0,0,1,0,0)"><svg width="232.75576470588234" viewBox="2.42 -36.74 50.239999999999995 37.35" height="173.04" data-palette-color="url(#fc02bea8-8328-434f-b530-d62310f8885f)"></svg></g></svg></g></svg></g></svg></g></svg></g></svg></g></svg></g></svg></g><defs><mask></mask></defs><mask><g id="SvgjsG2041"><svg viewBox="0 0 275.90868 241.23766" height="241.23766" width="275.90868"><g><svg></svg></g><g><svg viewBox="0 0 275.90868 241.23766" height="241.23766" width="275.90868"><g transform="matrix(1,0,0,1,-59.80566,-5.96234)"><path d="M59.806 5.962h275.908v235.276l-62.969 0 0-15.605h47.364v-204.066h-244.698l0 187.773h-15.605z" fill="black" fill-rule="nonzero" stroke="none" stroke-width="1" stroke-linecap="butt" stroke-linejoin="miter" stroke-miterlimit="10" stroke-dasharray="" stroke-dashoffset="0" font-family="none" font-weight="none" font-size="none" text-anchor="none" style="mix-blend-mode: normal"></path><g><path d="M101.391 246.571l-11.85-18.091-2.517 3.985v14.106h-2.937v-36.759h2.937v17.514l11.746-17.514h3.408l-10.75 15.889 13.477 20.87zM124.674 246.571v-17.986c0-2.132-0.619-3.681-1.857-4.646-1.245-0.958-2.846-1.437-4.803-1.437v0c-1.189 0-2.395 0.164-3.618 0.493-1.224 0.336-2.307 0.766-3.251 1.29v0 22.286h-2.937v-36.706h2.937v11.85c0.874-0.594 1.923-1.059 3.146-1.394 1.224-0.329 2.5-0.493 3.828-0.493v0c1.818 0 3.478 0.332 4.982 0.996v0c1.398 0.629 2.493 1.573 3.282 2.832 0.783 1.258 1.175 2.849 1.175 4.771v0 18.144zM152.833 246.571c-3.775 0.385-6.502 0.577-8.181 0.577v0c-3.671 0-6.59-0.682-8.757-2.045-2.167-1.363-3.251-3.828-3.251-7.394v0-4.352c0-3.461 1.206-5.786 3.618-6.975v0c1.154-0.594 2.622-0.891 4.405-0.891v0c1.643 0 3.304 0.269 4.982 0.807 1.678 0.545 3.094 1.255 4.247 2.129v0c0-1.923-0.559-3.454-1.678-4.593-1.119-1.133-3.269-1.699-6.45-1.699v0l0.158-2.255c3.356 0 5.831 0.531 7.425 1.594 1.587 1.07 2.566 2.339 2.936 3.807 0.364 1.468 0.545 3.356 0.545 5.663v0zM149.896 230.682c-1.433-0.664-2.961-1.241-4.583-1.73-1.629-0.489-3.125-0.734-4.489-0.734v0c-3.531 0-5.296 1.765-5.296 5.296v0 4.562c0 2.272 0.787 3.922 2.36 4.95 1.573 1.035 3.81 1.552 6.712 1.552v0c1.503 0 3.269-0.14 5.296-0.419v0zM158.81 228.427c0-3.671 1.486-6.188 4.458-7.551v0c1.433-0.664 3.146-0.996 5.138-0.996v0c1.293 0 2.545 0.157 3.755 0.472 1.203 0.315 2.223 0.769 3.062 1.363v0-11.85h2.937v36.706l-2.884 0.262c-2.272 0.245-4.055 0.367-5.349 0.367v0c-1.293 0-2.507-0.122-3.639-0.367-1.14-0.245-2.269-0.647-3.388-1.206v0c-1.258-0.629-2.255-1.556-2.988-2.779-0.734-1.224-1.101-2.727-1.102-4.51v0zM175.223 224.285c-0.944-0.524-2.028-0.954-3.251-1.29-1.224-0.329-2.43-0.493-3.618-0.493v0c-1.958 0-3.555 0.479-4.793 1.437-1.245 0.965-1.867 2.514-1.867 4.646v0 9.806c0 4.09 2.814 6.135 8.443 6.135v0c1.328 0 3.024-0.157 5.086-0.472v0zM185.763 212.854c-0.454 0-0.863-0.185-1.227-0.556-0.371-0.364-0.556-0.773-0.556-1.227v0c0-0.454 0.175-0.856 0.525-1.206 0.35-0.35 0.769-0.524 1.258-0.525v0c0.489 0 0.902 0.168 1.238 0.504 0.329 0.329 0.493 0.738 0.493 1.227v0c0 0.489-0.175 0.909-0.525 1.258-0.35 0.35-0.752 0.524-1.206 0.525zM184.242 246.571v-26.271h2.937v26.271zM194.887 246.571v-26.271h2.937l-0.158 1.835c1.643-1.538 3.793-2.307 6.45-2.307v0c0.944 0 2.237 0.157 3.881 0.472v0l-0.787 2.674c-1.119-0.35-2.29-0.524-3.513-0.524v0c-1.608 0-2.989 0.297-4.143 0.891-1.154 0.594-1.73 1.486-1.73 2.674v0 20.556zM225.93 246.571c-3.775 0.385-6.502 0.577-8.18 0.577v0c-3.671 0-6.59-0.682-8.757-2.045-2.167-1.363-3.251-3.828-3.251-7.394v0-4.352c0-3.461 1.206-5.786 3.618-6.975v0c1.154-0.594 2.622-0.891 4.405-0.891v0c1.643 0 3.304 0.269 4.981 0.807 1.678 0.545 3.094 1.255 4.248 2.129v0c0-1.923-0.559-3.454-1.678-4.593-1.119-1.133-3.269-1.699-6.45-1.699v0l0.157-2.255c3.356 0 5.831 0.531 7.425 1.594 1.587 1.07 2.566 2.339 2.937 3.807 0.364 1.468 0.545 3.356 0.545 5.663v0zM222.994 230.682c-1.433-0.664-2.961-1.241-4.583-1.73-1.629-0.489-3.125-0.734-4.489-0.734v0c-3.531 0-5.296 1.765-5.296 5.296v0 4.562c0 2.272 0.787 3.922 2.36 4.95 1.573 1.035 3.81 1.552 6.712 1.552v0c1.503 0 3.269-0.14 5.296-0.419v0z" fill="black" fill-rule="nonzero" stroke="none" stroke-width="1" stroke-linecap="butt" stroke-linejoin="miter" stroke-miterlimit="10" stroke-dasharray="" stroke-dashoffset="0" font-family="none" font-weight="none" font-size="none" text-anchor="none" style="mix-blend-mode: normal" id="SvgjsPath2040"></path></g></g><g transform="matrix(1,0,0,1,21.57645764705883,34.09883000000001)"><svg viewBox="0 0 232.75576470588234 173.04" height="173.04" width="232.75576470588234"><g><svg viewBox="0 0 232.75576470588234 173.04" height="173.04" width="232.75576470588234"><g><svg viewBox="0 0 232.75576470588234 173.04" height="173.04" width="232.75576470588234"><g><svg viewBox="0 0 232.75576470588234 173.04" height="173.04" width="232.75576470588234"><g id="SvgjsG2039"><svg viewBox="0 0 232.75576470588234 173.04" height="173.04" width="232.75576470588234" id="SvgjsSvg2038"><g><svg viewBox="0 0 232.75576470588234 173.04" height="173.04" width="232.75576470588234"><g transform="matrix(1,0,0,1,0,0)"><svg width="232.75576470588234" viewBox="2.42 -36.74 50.239999999999995 37.35" height="173.04" data-palette-color="url(#fc02bea8-8328-434f-b530-d62310f8885f)"><path d="M13.89 0.61L13.89 0.61Q10.86 0.61 8.24-0.93 5.62-2.47 4.02-5.38 2.42-8.3 2.42-12.45L2.42-12.45Q2.42-16.63 4.02-19.57 5.62-22.51 8.24-24.06 10.86-25.61 13.89-25.61L13.89-25.61Q16.97-25.61 19.6-24.06 22.24-22.51 23.84-19.57 25.44-16.63 25.44-12.45L25.44-12.45Q25.44-8.3 23.84-5.38 22.24-2.47 19.6-0.93 16.97 0.61 13.89 0.61ZM13.89-2.66L13.89-2.66Q17.24-2.66 19.31-5.36 21.39-8.06 21.39-12.45L21.39-12.45Q21.39-16.87 19.31-19.59 17.24-22.31 13.89-22.31L13.89-22.31Q11.72-22.31 10.03-21.07 8.35-19.82 7.41-17.61 6.47-15.41 6.47-12.45L6.47-12.45Q6.47-8.06 8.54-5.36 10.62-2.66 13.89-2.66ZM36.06 0L32.15 0 32.15-36.74 36.06-36.74 36.06-11.57 36.2-11.57 47.09-24.98 51.51-24.98 43.16-14.94 52.66 0 48.34 0 40.92-12.21 36.06-6.64 36.06 0Z" opacity="1" transform="matrix(1,0,0,1,0,0)" fill="black" class="wordmark-text-0" id="SvgjsPath2037"></path></svg></g></svg></g></svg></g></svg></g></svg></g></svg></g></svg></g></svg></g><defs><mask></mask></defs></svg><rect width="275.90868" height="241.23766" fill="black" stroke="none" visibility="hidden"></rect></g></mask><mask><g id="SvgjsG2036"><svg viewBox="0 0 275.90868 241.23766" height="241.23766" width="275.90868"><g><svg></svg></g><g><svg viewBox="0 0 275.90868 241.23766" height="241.23766" width="275.90868"><g transform="matrix(1,0,0,1,-59.80566,-5.96234)"><path d="M59.806 5.962h275.908v235.276l-62.969 0 0-15.605h47.364v-204.066h-244.698l0 187.773h-15.605z" fill="black" fill-rule="nonzero" stroke="none" stroke-width="1" stroke-linecap="butt" stroke-linejoin="miter" stroke-miterlimit="10" stroke-dasharray="" stroke-dashoffset="0" font-family="none" font-weight="none" font-size="none" text-anchor="none" style="mix-blend-mode: normal"></path><g><path d="M101.391 246.571l-11.85-18.091-2.517 3.985v14.106h-2.937v-36.759h2.937v17.514l11.746-17.514h3.408l-10.75 15.889 13.477 20.87zM124.674 246.571v-17.986c0-2.132-0.619-3.681-1.857-4.646-1.245-0.958-2.846-1.437-4.803-1.437v0c-1.189 0-2.395 0.164-3.618 0.493-1.224 0.336-2.307 0.766-3.251 1.29v0 22.286h-2.937v-36.706h2.937v11.85c0.874-0.594 1.923-1.059 3.146-1.394 1.224-0.329 2.5-0.493 3.828-0.493v0c1.818 0 3.478 0.332 4.982 0.996v0c1.398 0.629 2.493 1.573 3.282 2.832 0.783 1.258 1.175 2.849 1.175 4.771v0 18.144zM152.833 246.571c-3.775 0.385-6.502 0.577-8.181 0.577v0c-3.671 0-6.59-0.682-8.757-2.045-2.167-1.363-3.251-3.828-3.251-7.394v0-4.352c0-3.461 1.206-5.786 3.618-6.975v0c1.154-0.594 2.622-0.891 4.405-0.891v0c1.643 0 3.304 0.269 4.982 0.807 1.678 0.545 3.094 1.255 4.247 2.129v0c0-1.923-0.559-3.454-1.678-4.593-1.119-1.133-3.269-1.699-6.45-1.699v0l0.158-2.255c3.356 0 5.831 0.531 7.425 1.594 1.587 1.07 2.566 2.339 2.936 3.807 0.364 1.468 0.545 3.356 0.545 5.663v0zM149.896 230.682c-1.433-0.664-2.961-1.241-4.583-1.73-1.629-0.489-3.125-0.734-4.489-0.734v0c-3.531 0-5.296 1.765-5.296 5.296v0 4.562c0 2.272 0.787 3.922 2.36 4.95 1.573 1.035 3.81 1.552 6.712 1.552v0c1.503 0 3.269-0.14 5.296-0.419v0zM158.81 228.427c0-3.671 1.486-6.188 4.458-7.551v0c1.433-0.664 3.146-0.996 5.138-0.996v0c1.293 0 2.545 0.157 3.755 0.472 1.203 0.315 2.223 0.769 3.062 1.363v0-11.85h2.937v36.706l-2.884 0.262c-2.272 0.245-4.055 0.367-5.349 0.367v0c-1.293 0-2.507-0.122-3.639-0.367-1.14-0.245-2.269-0.647-3.388-1.206v0c-1.258-0.629-2.255-1.556-2.988-2.779-0.734-1.224-1.101-2.727-1.102-4.51v0zM175.223 224.285c-0.944-0.524-2.028-0.954-3.251-1.29-1.224-0.329-2.43-0.493-3.618-0.493v0c-1.958 0-3.555 0.479-4.793 1.437-1.245 0.965-1.867 2.514-1.867 4.646v0 9.806c0 4.09 2.814 6.135 8.443 6.135v0c1.328 0 3.024-0.157 5.086-0.472v0zM185.763 212.854c-0.454 0-0.863-0.185-1.227-0.556-0.371-0.364-0.556-0.773-0.556-1.227v0c0-0.454 0.175-0.856 0.525-1.206 0.35-0.35 0.769-0.524 1.258-0.525v0c0.489 0 0.902 0.168 1.238 0.504 0.329 0.329 0.493 0.738 0.493 1.227v0c0 0.489-0.175 0.909-0.525 1.258-0.35 0.35-0.752 0.524-1.206 0.525zM184.242 246.571v-26.271h2.937v26.271zM194.887 246.571v-26.271h2.937l-0.158 1.835c1.643-1.538 3.793-2.307 6.45-2.307v0c0.944 0 2.237 0.157 3.881 0.472v0l-0.787 2.674c-1.119-0.35-2.29-0.524-3.513-0.524v0c-1.608 0-2.989 0.297-4.143 0.891-1.154 0.594-1.73 1.486-1.73 2.674v0 20.556zM225.93 246.571c-3.775 0.385-6.502 0.577-8.18 0.577v0c-3.671 0-6.59-0.682-8.757-2.045-2.167-1.363-3.251-3.828-3.251-7.394v0-4.352c0-3.461 1.206-5.786 3.618-6.975v0c1.154-0.594 2.622-0.891 4.405-0.891v0c1.643 0 3.304 0.269 4.981 0.807 1.678 0.545 3.094 1.255 4.248 2.129v0c0-1.923-0.559-3.454-1.678-4.593-1.119-1.133-3.269-1.699-6.45-1.699v0l0.157-2.255c3.356 0 5.831 0.531 7.425 1.594 1.587 1.07 2.566 2.339 2.937 3.807 0.364 1.468 0.545 3.356 0.545 5.663v0zM222.994 230.682c-1.433-0.664-2.961-1.241-4.583-1.73-1.629-0.489-3.125-0.734-4.489-0.734v0c-3.531 0-5.296 1.765-5.296 5.296v0 4.562c0 2.272 0.787 3.922 2.36 4.95 1.573 1.035 3.81 1.552 6.712 1.552v0c1.503 0 3.269-0.14 5.296-0.419v0z" fill="black" fill-rule="nonzero" stroke="none" stroke-width="1" stroke-linecap="butt" stroke-linejoin="miter" stroke-miterlimit="10" stroke-dasharray="" stroke-dashoffset="0" font-family="none" font-weight="none" font-size="none" text-anchor="none" style="mix-blend-mode: normal" id="SvgjsPath2035"></path></g></g><g transform="matrix(1,0,0,1,21.57645764705883,34.09883000000001)"><svg viewBox="0 0 232.75576470588234 173.04" height="173.04" width="232.75576470588234"><g><svg viewBox="0 0 232.75576470588234 173.04" height="173.04" width="232.75576470588234"><g><svg viewBox="0 0 232.75576470588234 173.04" height="173.04" width="232.75576470588234"><g><svg viewBox="0 0 232.75576470588234 173.04" height="173.04" width="232.75576470588234"><g id="SvgjsG2034"><svg viewBox="0 0 232.75576470588234 173.04" height="173.04" width="232.75576470588234" id="SvgjsSvg2033"><g><svg viewBox="0 0 232.75576470588234 173.04" height="173.04" width="232.75576470588234"><g transform="matrix(1,0,0,1,0,0)"><svg width="232.75576470588234" viewBox="2.42 -36.74 50.239999999999995 37.35" height="173.04" data-palette-color="url(#fc02bea8-8328-434f-b530-d62310f8885f)"></svg></g></svg></g></svg></g></svg></g></svg></g></svg></g></svg></g></svg></g><defs><mask></mask></defs><mask><g id="SvgjsG2032"><svg viewBox="0 0 275.90868 241.23766" height="241.23766" width="275.90868"><g><svg></svg></g><g><svg viewBox="0 0 275.90868 241.23766" height="241.23766" width="275.90868"><g transform="matrix(1,0,0,1,-59.80566,-5.96234)"><path d="M59.806 5.962h275.908v235.276l-62.969 0 0-15.605h47.364v-204.066h-244.698l0 187.773h-15.605z" fill="black" fill-rule="nonzero" stroke="none" stroke-width="1" stroke-linecap="butt" stroke-linejoin="miter" stroke-miterlimit="10" stroke-dasharray="" stroke-dashoffset="0" font-family="none" font-weight="none" font-size="none" text-anchor="none" style="mix-blend-mode: normal"></path><g><path d="M101.391 246.571l-11.85-18.091-2.517 3.985v14.106h-2.937v-36.759h2.937v17.514l11.746-17.514h3.408l-10.75 15.889 13.477 20.87zM124.674 246.571v-17.986c0-2.132-0.619-3.681-1.857-4.646-1.245-0.958-2.846-1.437-4.803-1.437v0c-1.189 0-2.395 0.164-3.618 0.493-1.224 0.336-2.307 0.766-3.251 1.29v0 22.286h-2.937v-36.706h2.937v11.85c0.874-0.594 1.923-1.059 3.146-1.394 1.224-0.329 2.5-0.493 3.828-0.493v0c1.818 0 3.478 0.332 4.982 0.996v0c1.398 0.629 2.493 1.573 3.282 2.832 0.783 1.258 1.175 2.849 1.175 4.771v0 18.144zM152.833 246.571c-3.775 0.385-6.502 0.577-8.181 0.577v0c-3.671 0-6.59-0.682-8.757-2.045-2.167-1.363-3.251-3.828-3.251-7.394v0-4.352c0-3.461 1.206-5.786 3.618-6.975v0c1.154-0.594 2.622-0.891 4.405-0.891v0c1.643 0 3.304 0.269 4.982 0.807 1.678 0.545 3.094 1.255 4.247 2.129v0c0-1.923-0.559-3.454-1.678-4.593-1.119-1.133-3.269-1.699-6.45-1.699v0l0.158-2.255c3.356 0 5.831 0.531 7.425 1.594 1.587 1.07 2.566 2.339 2.936 3.807 0.364 1.468 0.545 3.356 0.545 5.663v0zM149.896 230.682c-1.433-0.664-2.961-1.241-4.583-1.73-1.629-0.489-3.125-0.734-4.489-0.734v0c-3.531 0-5.296 1.765-5.296 5.296v0 4.562c0 2.272 0.787 3.922 2.36 4.95 1.573 1.035 3.81 1.552 6.712 1.552v0c1.503 0 3.269-0.14 5.296-0.419v0zM158.81 228.427c0-3.671 1.486-6.188 4.458-7.551v0c1.433-0.664 3.146-0.996 5.138-0.996v0c1.293 0 2.545 0.157 3.755 0.472 1.203 0.315 2.223 0.769 3.062 1.363v0-11.85h2.937v36.706l-2.884 0.262c-2.272 0.245-4.055 0.367-5.349 0.367v0c-1.293 0-2.507-0.122-3.639-0.367-1.14-0.245-2.269-0.647-3.388-1.206v0c-1.258-0.629-2.255-1.556-2.988-2.779-0.734-1.224-1.101-2.727-1.102-4.51v0zM175.223 224.285c-0.944-0.524-2.028-0.954-3.251-1.29-1.224-0.329-2.43-0.493-3.618-0.493v0c-1.958 0-3.555 0.479-4.793 1.437-1.245 0.965-1.867 2.514-1.867 4.646v0 9.806c0 4.09 2.814 6.135 8.443 6.135v0c1.328 0 3.024-0.157 5.086-0.472v0zM185.763 212.854c-0.454 0-0.863-0.185-1.227-0.556-0.371-0.364-0.556-0.773-0.556-1.227v0c0-0.454 0.175-0.856 0.525-1.206 0.35-0.35 0.769-0.524 1.258-0.525v0c0.489 0 0.902 0.168 1.238 0.504 0.329 0.329 0.493 0.738 0.493 1.227v0c0 0.489-0.175 0.909-0.525 1.258-0.35 0.35-0.752 0.524-1.206 0.525zM184.242 246.571v-26.271h2.937v26.271zM194.887 246.571v-26.271h2.937l-0.158 1.835c1.643-1.538 3.793-2.307 6.45-2.307v0c0.944 0 2.237 0.157 3.881 0.472v0l-0.787 2.674c-1.119-0.35-2.29-0.524-3.513-0.524v0c-1.608 0-2.989 0.297-4.143 0.891-1.154 0.594-1.73 1.486-1.73 2.674v0 20.556zM225.93 246.571c-3.775 0.385-6.502 0.577-8.18 0.577v0c-3.671 0-6.59-0.682-8.757-2.045-2.167-1.363-3.251-3.828-3.251-7.394v0-4.352c0-3.461 1.206-5.786 3.618-6.975v0c1.154-0.594 2.622-0.891 4.405-0.891v0c1.643 0 3.304 0.269 4.981 0.807 1.678 0.545 3.094 1.255 4.248 2.129v0c0-1.923-0.559-3.454-1.678-4.593-1.119-1.133-3.269-1.699-6.45-1.699v0l0.157-2.255c3.356 0 5.831 0.531 7.425 1.594 1.587 1.07 2.566 2.339 2.937 3.807 0.364 1.468 0.545 3.356 0.545 5.663v0zM222.994 230.682c-1.433-0.664-2.961-1.241-4.583-1.73-1.629-0.489-3.125-0.734-4.489-0.734v0c-3.531 0-5.296 1.765-5.296 5.296v0 4.562c0 2.272 0.787 3.922 2.36 4.95 1.573 1.035 3.81 1.552 6.712 1.552v0c1.503 0 3.269-0.14 5.296-0.419v0z" fill="black" fill-rule="nonzero" stroke="none" stroke-width="1" stroke-linecap="butt" stroke-linejoin="miter" stroke-miterlimit="10" stroke-dasharray="" stroke-dashoffset="0" font-family="none" font-weight="none" font-size="none" text-anchor="none" style="mix-blend-mode: normal" id="SvgjsPath2031"></path></g></g><g transform="matrix(1,0,0,1,21.57645764705883,34.09883000000001)"><svg viewBox="0 0 232.75576470588234 173.04" height="173.04" width="232.75576470588234"><g><svg viewBox="0 0 232.75576470588234 173.04" height="173.04" width="232.75576470588234"><g><svg viewBox="0 0 232.75576470588234 173.04" height="173.04" width="232.75576470588234"><g><svg viewBox="0 0 232.75576470588234 173.04" height="173.04" width="232.75576470588234"><g id="SvgjsG2030"><svg viewBox="0 0 232.75576470588234 173.04" height="173.04" width="232.75576470588234" id="SvgjsSvg2029"><g><svg viewBox="0 0 232.75576470588234 173.04" height="173.04" width="232.75576470588234"><g transform="matrix(1,0,0,1,0,0)"><svg width="232.75576470588234" viewBox="2.42 -36.74 50.239999999999995 37.35" height="173.04" data-palette-color="url(#fc02bea8-8328-434f-b530-d62310f8885f)"><path d="M13.89 0.61L13.89 0.61Q10.86 0.61 8.24-0.93 5.62-2.47 4.02-5.38 2.42-8.3 2.42-12.45L2.42-12.45Q2.42-16.63 4.02-19.57 5.62-22.51 8.24-24.06 10.86-25.61 13.89-25.61L13.89-25.61Q16.97-25.61 19.6-24.06 22.24-22.51 23.84-19.57 25.44-16.63 25.44-12.45L25.44-12.45Q25.44-8.3 23.84-5.38 22.24-2.47 19.6-0.93 16.97 0.61 13.89 0.61ZM13.89-2.66L13.89-2.66Q17.24-2.66 19.31-5.36 21.39-8.06 21.39-12.45L21.39-12.45Q21.39-16.87 19.31-19.59 17.24-22.31 13.89-22.31L13.89-22.31Q11.72-22.31 10.03-21.07 8.35-19.82 7.41-17.61 6.47-15.41 6.47-12.45L6.47-12.45Q6.47-8.06 8.54-5.36 10.62-2.66 13.89-2.66ZM36.06 0L32.15 0 32.15-36.74 36.06-36.74 36.06-11.57 36.2-11.57 47.09-24.98 51.51-24.98 43.16-14.94 52.66 0 48.34 0 40.92-12.21 36.06-6.64 36.06 0Z" opacity="1" transform="matrix(1,0,0,1,0,0)" fill="black" class="wordmark-text-0" id="SvgjsPath2028"></path></svg></g></svg></g></svg></g></svg></g></svg></g></svg></g></svg></g></svg></g><defs><mask></mask></defs></svg><rect width="275.90868" height="241.23766" fill="black" stroke="none" visibility="hidden"></rect></g></mask></svg><rect width="275.90868" height="241.23766" fill="black" stroke="none" visibility="hidden"></rect></g></mask></svg><rect width="275.90868" height="241.23766" fill="black" stroke="none" visibility="hidden"></rect></g></mask><linearGradient x1="0" x2="1" y1="0.5" y2="0.5" id="840fe368-b08f-4910-9f74-f1f1e0cb0d2a"><stop stop-color="#ffa62e" offset="0"></stop><stop stop-color="#f71b3d" offset="1"></stop></linearGradient></svg><rect width="275.90868" height="241.23766" fill="none" stroke="none" visibility="hidden"></rect></g></svg></g></svg>